<svg xmlns="http://www.w3.org/2000/svg"  viewBox="0 0 128 128" width="64px" height="64px"><path fill="#3f4a54" d="M67.8,116.9c-1.7,0-3-1.4-3-3c0,0,0,0,0,0c0-0.9,0-20.6,0-37.3c0-1.7,1.3-3,3-3h7.8l0.7-7.2h-8.5c-1.7,0-3-1.3-3-3v-7.8c0-4.5,3.3-6.6,6.3-6.6h5.4v-6.9l-8.5,0c-11.5,0-12.7,8.9-12.7,12.7v8.6c0,1.7-1.3,3-3,3h-6.9v7.2h6.9c1.7,0,3,1.3,3,3v36.1c0,1.7-1.3,3-3,3s-3-1.3-3-3V79.6h-6.9c-1.7,0-3-1.3-3-3V63.3c0-1.7,1.3-3,3-3h6.9v-5.6c0-8.6,4.9-18.7,18.7-18.7l11.5,0c1.7,0,3,1.3,3,3V52c0,1.7-1.3,3-3,3h-8.4c-0.1,0-0.2,0-0.2,0c0,0.1-0.1,0.3-0.1,0.6v4.8h8.9c0.8,0,1.7,0.4,2.2,1c0.6,0.6,0.8,1.5,0.8,2.3l-1.4,13.2c-0.2,1.5-1.4,2.7-3,2.7h-7.5c0,7.7,0,15.7,0,22.1l0,11.4c0,0.2,0,0.4,0,0.6c0,0.1,0,0.2,0,0.3l0,0C70.5,116.4,69,116.9,67.8,116.9z"/><path fill="#3f4a54" d="M67.8,116.9c-1.6,0-2.9-1.2-3-2.8c-0.1-1.7,1.1-3.1,2.8-3.2c24.4-1.8,43.4-22.4,43.4-46.9c0-25.9-21.1-47-47-47s-47,21.1-47,47c0,21.8,14.8,40.6,35.9,45.7c1.6,0.4,2.6,2,2.2,3.6c-0.4,1.6-2,2.6-3.6,2.2C27.7,109.8,11,88.6,11,64.1c0-29.2,23.8-53,53-53c29.2,0,53,23.8,53,53c0,27.6-21.5,50.8-49,52.8C67.9,116.9,67.9,116.9,67.8,116.9z"/></svg>